<?xml version="1.0" standalone="no"?><!DOCTYPE svg PUBLIC "-//W3C//DTD SVG 1.1//EN" "http://www.w3.org/Graphics/SVG/1.1/DTD/svg11.dtd"><svg t="1575732133596" class="icon" viewBox="0 0 1024 1024" version="1.1" xmlns="http://www.w3.org/2000/svg" p-id="10404" xmlns:xlink="http://www.w3.org/1999/xlink" width="128" height="128"><defs><style type="text/css"></style></defs><path d="M754.8 64c-77.8 0-141.2 63.4-141.2 141.4 0 34.2 12.4 67.4 35 93.2 20 23 47 38.8 76.4 45v86.2L512 540.6l-212.8-110.8v-86.2c64.4-13.8 111.4-71.2 111.4-138.2 0-78-63.4-141.4-141.2-141.4S128 127.4 128 205.4c0 34.2 12.4 67.4 35 93.2 20 23 47 38.8 76.4 45v114.8c0 5.4 3 10.2 7.8 12.6l235 121.6v87.8c-64.4 13.8-111.4 71.2-111.4 138.2 0 78 63.4 141.4 141.2 141.4s141.2-63.4 141.2-141.4c0-34.2-12.4-67.4-35-93.2-20-23-47-38.8-76.4-45v-87.8l235-121.6c4.8-2.4 7.8-7.2 7.8-12.6v-114.8c64.4-13.8 111.4-71.2 111.4-138.2 0-78-63.4-141.4-141.2-141.4zM187.6 205.4c0-45 36.6-81.6 81.6-81.6s81.6 36.6 81.6 81.6c0 45-36.6 81.6-81.6 81.6s-81.6-36.6-81.6-81.6z m406 613.2c0 45-36.6 81.6-81.6 81.6s-81.6-36.6-81.6-81.6c0-45 36.6-81.6 81.6-81.6s81.6 36.6 81.6 81.6z m161.2-531.4c-45 0-81.6-36.6-81.6-81.6 0-45 36.6-81.6 81.6-81.6 45 0 81.6 36.6 81.6 81.6 0 44.8-36.6 81.6-81.6 81.6z" p-id="10405"></path></svg>